<?xml version="1.0" encoding="UTF-8" standalone="no"?>
<!-- Created with Inkscape (http://www.inkscape.org/) -->

<svg
   width="300mm"
   height="208mm"
   viewBox="0 0 299.99999 207.99999"
   version="1.1"
   id="svg2810"
   inkscape:version="1.2.1 (9c6d41e410, 2022-07-14)"
   sodipodi:docname="bile_logo.svg"
   xmlns:inkscape="http://www.inkscape.org/namespaces/inkscape"
   xmlns:sodipodi="http://sodipodi.sourceforge.net/DTD/sodipodi-0.dtd"
   xmlns="http://www.w3.org/2000/svg"
   xmlns:svg="http://www.w3.org/2000/svg">
  <sodipodi:namedview
     id="namedview2812"
     pagecolor="#ffffff"
     bordercolor="#000000"
     borderopacity="0.25"
     inkscape:showpageshadow="2"
     inkscape:pageopacity="0.0"
     inkscape:pagecheckerboard="0"
     inkscape:deskcolor="#d1d1d1"
     inkscape:document-units="mm"
     showgrid="false"
     inkscape:zoom="0.71624579"
     inkscape:cx="396.51193"
     inkscape:cy="339.96709"
     inkscape:window-width="1920"
     inkscape:window-height="991"
     inkscape:window-x="-9"
     inkscape:window-y="-9"
     inkscape:window-maximized="1"
     inkscape:current-layer="layer1" />
  <defs
     id="defs2807" />
  <g
     inkscape:label="Vrstva 1"
     inkscape:groupmode="layer"
     id="layer1">
    <path
       style="fill:#f2f2f2;fill-opacity:1;stroke:none;stroke-width:1.58465;stroke-opacity:1"
       d="m 90.711029,204.99003 c -0.430039,-1.12095 -0.59054,-19.49536 -0.356962,-40.83207 l 0.425227,-38.79406 40.831596,-0.42283 40.83149,-0.42284 -0.42285,40.8316 -0.42283,40.83152 -40.05162,0.42344 c -31.48774,0.333 -40.218965,-0.0116 -40.83382,-1.61458 z M 1.9705324,116.24955 C 1.5405054,115.1286 1.3799932,96.754172 1.6135737,75.417479 L 2.0388098,36.623471 H 42.447446 82.85608 v 40.408636 40.408573 l -40.051735,0.42344 c -31.487734,0.33301 -40.2188984,-0.0116 -40.8337534,-1.61457 z m 89.9689346,0.67522 c -1.553239,-0.99792 -1.912773,-10.25416 -1.584619,-40.796011 l 0.424635,-39.505288 40.831597,-0.422842 40.83148,-0.422838 -0.42284,40.831602 -0.42285,40.831537 -38.82389,0.38751 c -21.35317,0.2132 -39.728069,-0.19346 -40.833093,-0.90337 z M 178.72741,73.736478 V 33.993844 l 13.8628,-13.193629 c 7.6246,-7.256495 14.39902,-12.8622962 15.05425,-12.457365 0.65515,0.404872 1.19124,18.4572 1.19124,40.116124 v 39.37981 l -13.70245,12.820136 c -7.53632,7.05106 -14.31068,12.82014 -15.05411,12.82014 -0.74346,0 -1.35173,-17.884165 -1.35173,-39.742582 z M 215.54365,45.762027 215.96649,4.9304309 253.2058,4.4836342 c 20.48163,-0.245559 38.85599,-0.047909 40.8319,0.4330221 l 3.59259,0.8799979 -0.42345,39.9754298 -0.42344,39.975439 -40.83154,0.422844 -40.83159,0.422829 z M 95.447912,27.769832 c -0.585757,-0.947497 -0.449196,-2.234582 0.30245,-2.860158 0.752066,-0.625635 6.359008,-5.449663 12.459938,-10.720129 6.10087,-5.2704648 12.6501,-10.4012008 14.55384,-11.4017021 4.31262,-2.26644599 79.7328,-2.58082136 79.7328,-0.3324033 0,0.8177106 -6.41177,7.2355274 -14.24831,14.2618614 l -14.24839,12.775214 h -38.74389 c -26.19012,0 -39.088894,-0.558196 -39.808625,-1.72275 z"
       id="path266-3"
       sodipodi:nodetypes="sccccccssssccccccssssscccccsssscssscssscccccccccccssssscscc"
       inkscape:export-filename="logo_pikomat_small_light.png"
       inkscape:export-xdpi="128.43141"
       inkscape:export-ydpi="128.43141" />
  </g>
</svg>
